<?xml version="1.0" encoding="UTF-8"?>
<svg width="62px" height="83px" viewBox="0 0 62 83" version="1.1" xmlns="http://www.w3.org/2000/svg" xmlns:xlink="http://www.w3.org/1999/xlink">
    <!-- Generator: Sketch 48 (47235) - http://www.bohemiancoding.com/sketch -->
    <title>Eiffel-Tower</title>
    <desc>Created with Sketch.</desc>
    <defs></defs>
    <g id="Home" stroke="none" stroke-width="1" fill="none" fill-rule="evenodd" transform="translate(-859.000000, -936.000000)" fill-opacity="0.564481431">
        <g id="Eiffel-Tower" transform="translate(859.000000, 936.000000)" fill="#9B9B9B" fill-rule="nonzero">
            <path d="M61.677422,80.261 L59.6797608,77.490875 C55.6982152,71.98175 51.3446914,65.9504167 47.4802501,58.7916667 L51.6684503,58.7916667 C52.6190615,58.7916667 53.3905721,58.017 53.3905721,57.0625 C53.3905721,56.108 52.6190615,55.3333333 51.6684503,55.3333333 L45.6926878,55.3333333 C42.3207733,48.4581667 39.4930494,40.52475 37.8122585,31.125 L39.6101537,31.125 C40.5607649,31.125 41.3322754,30.3503333 41.3322754,29.3958333 C41.3322754,28.4413333 40.5642091,27.6666667 39.6135979,27.6666667 L37.2577353,27.6666667 C36.5757751,22.8630417 36.1693544,17.7135833 36.1693544,12.1041667 C36.1693544,11.8447917 36.1039137,11.6027083 36.0005864,11.381375 C35.9936979,11.3675417 35.9971422,11.3467917 35.9902537,11.3329583 L32.7251108,4.77595833 L32.7251108,1.72916667 C32.7251108,0.774666667 31.9536003,0 31.0029891,0 C30.0523778,0 29.2808673,0.774666667 29.2808673,1.72916667 L29.2808673,4.782875 L26.0191687,11.3329583 C26.0122802,11.3433333 26.0157244,11.3571667 26.0122802,11.3675417 C25.9055086,11.5923333 25.8331795,11.837875 25.8331795,12.1041667 C25.8331795,17.7135833 25.430203,22.8630417 24.7447985,27.6666667 L22.3923802,27.6666667 C21.441769,27.6666667 20.6702584,28.4413333 20.6702584,29.3958333 C20.6702584,30.3503333 21.441769,31.125 22.3923802,31.125 L24.1868311,31.125 C22.5060402,40.52475 19.6783163,48.4581667 16.3064019,55.3333333 L12.0596496,55.3333333 C11.1090384,55.3333333 10.3375278,56.108 10.3375278,57.0625 C10.3375278,58.017 11.1090384,58.7916667 12.0596496,58.7916667 L14.5222837,58.7916667 C10.6543982,65.9504167 6.30431863,71.98175 2.3227731,77.490875 L0.325111847,80.261 C-0.0537549427,80.790125 -0.105418596,81.48525 0.190786349,82.0627917 C0.486991293,82.6403333 1.07595694,83 1.72347472,83 L15.5934435,83 C16.0859703,83 16.5509432,82.7890417 16.8781463,82.4259167 C17.2053494,82.055875 17.3637846,81.5717083 17.3086767,81.080625 C17.2535688,80.5757083 17.2260149,80.0604167 17.2260149,79.5416667 C17.2260149,71.9125833 23.4049878,65.7083333 31.0029891,65.7083333 C38.6009903,65.7083333 44.7799632,71.9125833 44.7799632,79.5416667 C44.7799632,80.0604167 44.7524093,80.5757083 44.6938571,81.080625 C44.6421935,81.5717083 44.7971844,82.0593333 45.1243876,82.4259167 C45.4550349,82.7890417 45.9200078,83 46.4090904,83 L60.2790591,83 C60.9231327,83 61.5189868,82.6403333 61.8117475,82.0627917 C62.1045082,81.48525 62.0528446,80.7866667 61.677422,80.261 Z M29.2326479,13.8333333 L32.7664417,13.8333333 C32.8353266,18.7649167 33.1866395,23.3610417 33.7721609,27.6666667 L28.2234845,27.6666667 C28.8124502,23.3610417 29.1672072,18.7614583 29.2326479,13.8333333 Z M27.7034037,31.125 L34.2991301,31.125 C35.9041476,40.4901667 38.6147673,48.4166667 41.8695774,55.3333333 L37.409282,55.3333333 L34.3576823,46.1410833 C34.1234737,45.4355833 33.4656232,44.9583333 32.7251108,44.9583333 L29.2808673,44.9583333 C28.5403549,44.9583333 27.8825044,45.4355833 27.6482958,46.1410833 L24.5966961,55.3333333 L20.1329564,55.3333333 C23.3843223,48.4166667 26.0983863,40.4901667 27.7034037,31.125 Z M33.7790493,55.3333333 L28.2269288,55.3333333 L30.520795,48.4166667 L31.4817389,48.4166667 L33.7790493,55.3333333 Z M48.2242068,79.5416667 C48.2242068,70.0070417 40.4987685,62.25 31.0029891,62.25 C21.5072096,62.25 13.7817714,70.0070417 13.7817714,79.5416667 L5.09883339,79.5416667 L5.10916612,79.5209167 C9.47302269,73.4792083 14.2639655,66.8184583 18.4246116,58.7916667 L43.574478,58.7916667 C47.7385684,66.815 52.5260669,73.4792083 56.8899235,79.5209167 L56.9071447,79.5416667 L48.2242068,79.5416667 Z" id="Shape"></path>
        </g>
    </g>
</svg>