<?xml version="1.0" encoding="UTF-8"?>
<svg width="84px" height="70px" viewBox="0 0 84 70" version="1.1" xmlns="http://www.w3.org/2000/svg" xmlns:xlink="http://www.w3.org/1999/xlink">
    <!-- Generator: Sketch 48 (47235) - http://www.bohemiancoding.com/sketch -->
    <title>handshake</title>
    <desc>Created with Sketch.</desc>
    <defs></defs>
    <g id="Home" stroke="none" stroke-width="1" fill="none" fill-rule="evenodd" transform="translate(-176.000000, -943.000000)" fill-opacity="0.564481431">
        <g id="handshake" transform="translate(176.000000, 943.000000)" fill="#9B9B9B">
            <g id="Group-3">
                <path d="M44.9843053,65.9936573 C44.3219941,66.6559962 43.2170653,66.6979982 42.4675229,65.9516553 L38.8328885,62.5591877 L40.9652074,59.7159768 C41.1041312,59.5285834 41.1719777,59.3056498 41.2850552,59.1021017 L45.7661555,62.9113582 C46.2184656,63.370149 45.879233,65.0986921 44.9843053,65.9936573 M33.1693205,63.001824 C32.2485464,63.001824 31.4990041,62.2522502 31.4990041,61.3282066 L31.4990041,60.6432513 C31.4990041,60.2813881 31.6185432,59.9259867 31.831775,59.6384347 L35.3727166,54.9148274 C35.6893336,54.4980385 36.1836439,54.2492576 36.8298011,54.2492576 C37.7505752,54.2492576 38.5001176,55.0020623 38.5001176,55.9261059 L38.5001176,56.6110612 C38.5001176,56.9696935 38.3805785,57.3250949 38.1673466,57.6126469 L34.6231742,62.3362542 C34.309788,62.753043 33.8122469,63.001824 33.1693205,63.001824 M26.168207,59.4995051 C25.247433,59.4995051 24.4978906,58.7531622 24.4978906,57.8291186 L24.4978906,57.1441633 C24.4978906,56.7790691 24.6174297,56.4236678 24.8306615,56.1361158 L28.3716031,51.4157394 C28.6882202,50.9989505 29.1857612,50.7501696 29.8286877,50.7501696 C30.7494617,50.7501696 31.4990041,51.4997434 31.4990041,52.4237869 L31.4990041,53.1119732 C31.4990041,53.4706055 31.379465,53.8260069 31.1662331,54.1135589 L27.6220607,58.8371661 C27.3086745,59.253955 26.8111334,59.4995051 26.168207,59.4995051 M19.1670935,56.0004171 C18.2495502,56.0004171 17.5000079,55.2540742 17.5000079,54.3300306 L17.5000079,53.6418443 C17.5000079,53.2799811 17.619547,52.9245798 17.8327788,52.6370278 L21.3737204,47.9166514 C21.6903374,47.4998625 22.1846477,47.2510816 22.8308049,47.2510816 C23.751579,47.2510816 24.4978906,48.0006554 24.4978906,48.9246989 L24.4978906,49.6096543 C24.4978906,49.9715175 24.3815823,50.3269189 24.1683504,50.6144709 L20.624178,55.3348472 C20.3107918,55.7516361 19.8132507,56.0004171 19.1670935,56.0004171 M12.2499804,49.0830141 L12.2499804,48.2882074 C12.2499804,47.9554225 12.346904,47.6323303 12.5310588,47.357702 L14.4436842,44.4951055 C14.7538397,44.0266219 15.2707655,43.7487627 15.8296915,43.7487627 C16.7504655,43.7487627 17.5000079,44.5015674 17.5000079,45.42238 L17.5000079,46.2139558 C17.5000079,46.5467407 17.3998535,46.8698328 17.2156987,47.1444612 L15.3030733,50.0135195 C14.9961486,50.4787722 14.4792229,50.7534005 13.9170661,50.7534005 C12.9995228,50.7534005 12.2499804,50.0070576 12.2499804,49.0830141 M81.3435721,38.7472961 L73.5315313,43.4385942 L48.402477,21.4360186 C48.3443228,21.381093 48.2700147,21.3649384 48.2086298,21.3229364 C48.0955523,21.2453943 47.9921671,21.1775449 47.8693973,21.1290811 C47.7757045,21.093541 47.6820117,21.0806173 47.5850881,21.0612317 C47.4623182,21.0353844 47.3427791,21.0127679 47.2167785,21.0127679 C47.0972394,21.0159988 46.9873927,21.0483081 46.8710844,21.0741554 C46.7903147,21.093541 46.7127758,21.0838482 46.6320062,21.1096956 C46.5932368,21.1258502 46.5480058,21.1516975 46.5060055,21.1678522 L46.4672361,21.1872377 C44.0409157,22.162976 40.4805894,25.0481889 36.0899511,28.7217467 C35.2693315,29.4099329 34.5004044,30.0496554 33.841324,30.5859884 C33.1047048,31.1869398 32.2130078,31.5003392 31.2599259,31.5003392 L29.8609955,31.5003392 C28.3005258,31.5003392 26.8951339,30.6344522 26.2005149,29.2386941 C25.412203,27.6587735 25.7223585,25.7525298 26.9662112,24.508625 L36.0867203,15.3909645 C36.7038005,15.0129467 37.3273422,14.6026196 37.9670379,14.1825998 C40.7228984,12.3732838 43.5724517,10.4993493 47.2490863,10.4993493 C49.4266362,10.4993493 51.5880321,11.210152 54.0918913,12.034037 C58.1626818,13.3813313 63.2285544,15.0581796 70.2652066,13.9790518 C70.5850544,13.9338189 70.8919791,13.7948892 71.1407496,13.5784175 L83.3886597,3.07792256 C84.1220482,2.45112379 84.2092794,1.3429177 83.5760453,0.612729441 C82.946042,-0.120689744 81.844344,-0.201462782 81.1109555,0.41887415 L69.2442782,10.5898151 C63.2834778,11.3878527 58.9865323,9.96301632 55.183897,8.71264969 C52.5120369,7.83060812 49.988793,7.00026129 47.2490863,7.00026129 C44.4835334,7.00026129 42.163829,7.78214429 40.1025875,8.82896287 C33.3696292,6.7773277 25.4412801,6.45746647 16.546926,7.86937917 C14.0333744,8.27970621 11.4648994,7.57213439 9.52965854,5.95667364 L2.86777759,0.405950464 C2.12469679,-0.217617389 1.02622951,-0.107766057 0.405918579,0.632114971 C-0.214392354,1.371996 -0.111007198,2.47374024 0.62884282,3.09407717 L7.29072377,8.64480034 C10.0013533,10.9032145 13.571372,11.8789528 17.0961596,11.3264652 C24.0552729,10.2150282 30.2971516,10.2958012 35.7927188,11.4233928 C35.2208697,11.8014107 34.6522513,12.1697357 34.0997869,12.5025206 C33.977017,12.5736009 33.8639395,12.6640667 33.7637851,12.7642253 L24.491429,22.0337391 C22.1749554,24.3503098 21.606337,27.8752452 23.0698831,30.8024601 C24.3654283,33.3904283 26.9694419,34.9994272 29.8642263,34.9994272 L31.2631567,34.9994272 C33.0045504,34.9994272 34.7039439,34.3984758 36.0479509,33.3064243 C36.726416,32.7571676 37.5050354,32.1077524 38.3385783,31.4098734 C40.9296687,29.2386941 44.6773806,26.1079312 46.9615464,24.8252553 L72.4459872,47.1379993 C73.1179907,47.7163343 73.4992235,48.5596048 73.4992235,49.457801 C73.4992235,51.1314183 72.1326009,52.501329 70.4525922,52.501329 L69.9841282,52.501329 C69.2733552,52.501329 68.581967,52.2525481 68.0391949,51.8002191 L67.7548858,51.5675927 C67.7225779,51.5417454 67.69027,51.515898 67.6579622,51.4868197 L48.3701691,35.4129851 C47.6270883,34.7926482 46.528621,34.8960377 45.9050793,35.6359187 C45.2847684,36.3757997 45.3881535,37.4807749 46.1280036,38.0978809 L65.4804123,54.2266411 C66.1298003,54.7952833 66.49811,55.6159374 66.49811,56.4915171 C66.49811,58.1489799 65.1476414,59.4995051 63.4902481,59.4995051 L62.9700915,59.4995051 C62.2722417,59.4995051 61.5840843,59.2571859 61.0477738,58.8080879 L57.3679084,55.7419433 C57.3452929,55.7193269 57.3194466,55.6999414 57.3000619,55.6837867 L41.3722864,42.4111611 C40.622744,41.7875933 39.5242768,41.8974446 38.9039658,42.6340947 C38.2836549,43.3739758 38.38704,44.47572 39.1301209,45.092826 L55.1031274,58.4074536 C55.6717457,58.9050155 55.9980551,59.6190492 55.9980551,60.3815466 C55.9980551,61.8257686 54.822049,63.001824 53.3778876,63.001824 C52.0791116,63.001824 50.8029511,62.5559568 49.8272537,61.7708429 L41.9085969,55.0343715 C41.4853639,52.6047185 39.3659682,50.7469387 36.7102621,50.7469387 C36.0511817,50.7469387 35.4179476,50.9052538 34.8202522,51.1411111 C34.2419415,48.9117752 32.2162386,47.2510816 29.7091486,47.2478507 C29.053299,47.2478507 28.4200649,47.4061658 27.8191387,47.6420231 C27.240828,45.4126872 25.2151251,43.7487627 22.7112659,43.7455317 C22.0521855,43.7455317 21.4189514,43.9038469 20.821256,44.1429351 C20.2461761,41.9103683 18.2333963,40.2496746 15.8296915,40.2496746 C14.0915285,40.2496746 12.4858278,41.1123307 11.5295151,42.5533217 L10.8025883,43.6389113 L2.65131492,38.7472961 C1.82423368,38.2465033 0.748381906,38.5211316 0.250840846,39.3514785 C-0.246700215,40.1818253 0.0214550323,41.2577222 0.848536276,41.7520532 L9.0288867,46.6630539 C8.85442425,47.1832322 8.75103909,47.726027 8.75103909,48.2849765 L8.75103909,49.0797832 C8.75103909,51.9294559 11.0707435,54.2492576 13.9170661,54.2492576 C13.9461432,54.2492576 13.9719894,54.2395648 14.0010665,54.2395648 L14.0010665,54.3300306 C14.0010665,57.1797034 16.3175402,59.4995051 19.2866326,59.4995051 C19.945713,59.4995051 20.578947,59.3444208 21.1798732,59.1053326 C21.7549532,61.3411303 23.7806561,63.001824 26.2877461,63.001824 C26.9468264,63.001824 27.5800605,62.8435088 28.177756,62.6044206 C28.7560667,64.8402183 30.7817696,66.500912 33.2856288,66.500912 C34.5133275,66.500912 35.6957952,66.0582757 36.6198,65.2763927 L40.034741,68.4653123 C41.0298231,69.4539743 42.3479838,70 43.750145,70 C45.1490754,70 46.4672361,69.4539743 47.4590874,68.4685432 C48.2603224,67.6672747 48.8580178,66.5978396 49.1843272,65.470248 C50.4798724,66.129356 51.9175723,66.500912 53.3778876,66.500912 C56.2371333,66.500912 58.6440689,64.5300499 59.3128417,61.8806942 C60.3886934,62.6044206 61.6616232,63.001824 62.9700915,63.001824 L63.4902481,63.001824 C67.0796515,63.001824 69.9970513,60.07784 69.9970513,56.4818244 C69.9970513,56.3202783 69.9938205,56.1587322 69.9808974,56.0004171 L69.9841282,56.0004171 L70.4525922,56.0004171 C74.0613802,56.0004171 76.9981648,53.0635094 76.9981648,49.4416464 C76.9981648,48.220358 76.6266244,47.0572263 76.0030827,46.039486 L83.1495816,41.7520532 C83.973432,41.2577222 84.2415873,40.1785944 83.747277,39.3514785 C83.2497359,38.5243626 82.1738842,38.2400415 81.3435721,38.7472961" id="Fill-1"></path>
            </g>
        </g>
    </g>
</svg>