<?xml version="1.0" encoding="UTF-8"?>
<svg width="47px" height="75px" viewBox="0 0 47 75" version="1.1" xmlns="http://www.w3.org/2000/svg" xmlns:xlink="http://www.w3.org/1999/xlink">
    <!-- Generator: Sketch 48 (47235) - http://www.bohemiancoding.com/sketch -->
    <title>mobile</title>
    <desc>Created with Sketch.</desc>
    <defs></defs>
    <g id="Home" stroke="none" stroke-width="1" fill="none" fill-rule="evenodd" transform="translate(-529.000000, -940.000000)" fill-opacity="0.564481431">
        <g id="mobile" transform="translate(529.000000, 940.000000)" fill="#9B9B9B">
            <path d="M23,70 C24.659,70 26,68.432 26,66.5 C26,64.568 24.659,63 23,63 C21.344,63 20,64.568 20,66.5 C20,68.432 21.344,70 23,70" id="Fill-1"></path>
            <path d="M27.3333333,7 L20.6666667,7 C19.75,7 19,7.672 19,8.5 C19,9.328 19.75,10 20.6666667,10 L27.3333333,10 C28.2533333,10 29,9.328 29,8.5 C29,7.672 28.2533333,7 27.3333333,7" id="Fill-3"></path>
            <path d="M43.8666667,12.5 L3.13333333,12.5 L3.13333333,7.8125 C3.13333333,5.228125 5.24206667,3.125 7.83333333,3.125 L39.1666667,3.125 C41.7579333,3.125 43.8666667,5.228125 43.8666667,7.8125 L43.8666667,12.5 Z M3.13333333,56.25 L43.8666667,56.25 L43.8666667,15.625 L3.13333333,15.625 L3.13333333,56.25 Z M43.8666667,67.1875 C43.8666667,69.771875 41.7579333,71.875 39.1666667,71.875 L7.83333333,71.875 C5.24206667,71.875 3.13333333,69.771875 3.13333333,67.1875 L3.13333333,59.375 L43.8666667,59.375 L43.8666667,67.1875 Z M39.1666667,0 L7.83333333,0 C3.5156,0 0,3.50625 0,7.8125 L0,67.1875 C0,71.49375 3.5156,75 7.83333333,75 L39.1666667,75 C43.4844,75 47,71.49375 47,67.1875 L47,7.8125 C47,3.50625 43.4844,0 39.1666667,0 Z" id="Fill-5"></path>
        </g>
    </g>
</svg>