<?xml version="1.0" encoding="UTF-8"?>
<svg width="35px" height="29px" viewBox="0 0 35 29" version="1.1" xmlns="http://www.w3.org/2000/svg" xmlns:xlink="http://www.w3.org/1999/xlink">
    <!-- Generator: Sketch 48 (47235) - http://www.bohemiancoding.com/sketch -->
    <title>speech-right</title>
    <desc>Created with Sketch.</desc>
    <defs></defs>
    <g id="Home" stroke="none" stroke-width="1" fill="none" fill-rule="evenodd" transform="translate(-1055.000000, -4813.000000)">
        <path d="M1063.75,4828.08752 L1069,4828.08752 L1069,4842 L1055,4842 L1055,4831.47164 C1055,4819.97185 1059.66662,4813.8147 1069,4813 L1069,4818.21718 C1065.49998,4819.18855 1063.75,4821.97729 1063.75,4826.58347 L1063.75,4828.08752 Z M1084.75,4828.08752 L1090,4828.08752 L1090,4842 L1076,4842 L1076,4831.47164 C1076,4819.97185 1080.66662,4813.8147 1090,4813 L1090,4818.21718 C1086.49998,4819.18855 1084.75,4821.97729 1084.75,4826.58347 L1084.75,4828.08752 Z" id="speech-right" fill="#6ECC79" transform="translate(1072.500000, 4827.500000) scale(-1, -1) translate(-1072.500000, -4827.500000) "></path>
    </g>
</svg>