<?xml version="1.0" encoding="UTF-8"?>
<svg width="75px" height="74px" viewBox="0 0 75 74" version="1.1" xmlns="http://www.w3.org/2000/svg" xmlns:xlink="http://www.w3.org/1999/xlink">
    <!-- Generator: Sketch 48 (47235) - http://www.bohemiancoding.com/sketch -->
    <title>world</title>
    <desc>Created with Sketch.</desc>
    <defs></defs>
    <g id="Home" stroke="none" stroke-width="1" fill="none" fill-rule="evenodd" transform="translate(-1192.000000, -941.000000)" fill-opacity="0.564481431">
        <g id="world" transform="translate(1192.000000, 941.000000)" fill="#9B9B9B">
            <g id="Group-3">
                <path d="M37.0751372,70.9176154 C27.458417,70.9176154 18.777131,66.8903077 12.588435,60.458 C12.8251455,58.0928462 13.4183477,50.9205385 12.288982,47.3343846 C11.7271511,45.5583846 10.5207832,44.3516154 9.45415998,43.2871538 C8.6926937,42.5272308 7.96830256,41.8071538 7.58043958,40.9732308 C6.68208049,39.0663077 5.37589489,31.5866154 4.67717115,26.7823077 C9.0320738,13.061 21.9085541,3.08523077 37.0751372,3.08523077 C39.6418774,3.08523077 42.1316155,3.39546154 44.5357955,3.93338462 C43.6231768,5.05761538 42.8930818,6.31561538 42.4310685,7.27761538 C40.6314984,6.61730769 38.1103891,5.87161538 36.7015339,6.216 C34.3772079,6.79092308 31.9530644,9.77938462 29.6458501,12.9727692 C29.2950622,13.4537692 28.8159374,14.4243077 28.4480379,15.2183846 C26.6940988,15.0760769 24.9544192,15.8644615 23.5341563,17.3843077 C22.1424127,18.8728462 21.0786414,21.1753846 21.8572193,22.9570769 C22.3306403,24.0443077 23.3687441,24.6676154 24.7177088,24.6676154 C26.1322678,24.6676154 27.4612689,23.8906154 28.8701241,23.0709231 C30.1107152,22.348 31.3912334,21.5994615 32.4635605,21.5852308 C38.0077195,21.4656923 40.8910244,22.866 41.7351967,24.1581538 C41.9633514,24.5110769 42.0375017,24.8583077 41.9662033,25.2140769 C40.8482453,25.4218462 37.6654874,25.0973846 35.5008698,24.8810769 C31.8475428,24.5167692 28.0687308,24.1382308 25.867038,24.7188462 C23.1320337,25.4332308 21.5435066,27.3145385 18.7856868,31.5325385 C17.5479476,33.4309231 17.8930316,37.3728462 18.6630537,39.1545385 C19.1935133,40.3783846 21.0757895,42.5756154 22.7013917,43.0936154 C24.0332447,43.5148462 25.7444049,43.2729231 27.5667904,43.0253077 C28.9414225,42.8346154 31.0119263,42.5528462 31.6108323,42.9285385 C33.0310953,43.8307692 33.986493,47.6446154 33.986493,52.4062308 C33.9665295,52.6623846 33.5986301,53.4080769 33.384735,53.8549231 C32.8229041,55.0019231 32.2382577,56.1916154 32.4778202,57.35 C33.430366,62.0404615 36.9838753,64.7642308 39.9014034,64.7642308 C40.0354443,64.7642308 40.1694851,64.7556923 40.3092299,64.7471538 C44.5757226,64.3657692 51.6000351,58.8783846 52.4983942,54.2533846 C52.720845,53.1120769 52.6153235,51.4015385 52.509802,49.5913846 C52.4071323,47.9121538 52.293055,46.0080769 52.4955423,45.0233077 C52.7008815,44.0413846 54.312224,41.1126923 55.3931069,39.3480769 C55.7781179,38.7133846 55.6583367,37.8908462 55.1022096,37.3956154 C54.1382561,36.5303846 52.6096196,35.0788462 52.2360163,34.5608462 C51.8795246,34.0684615 51.2977302,32.9442308 50.7102318,31.7260769 C51.1722451,31.8911538 51.5344407,32.0363077 51.7141125,32.1473077 C53.4509401,33.2146154 57.6176151,37.851 59.0778051,39.5501538 C59.4457045,39.9713846 60.0189432,40.1706154 60.5465509,40.0539231 C62.8480614,39.6042308 63.1475144,37.2390769 63.3414459,35.6736923 C63.4070403,35.1073077 63.5410812,34.0656154 63.7064934,33.8720769 C64.9756038,33.6130769 66.5955021,36.1347692 67.9016877,38.2010769 C68.8057507,39.627 69.6755905,40.9732308 70.6566556,41.958 C68.2410678,58.312 54.1239964,70.9176154 37.0751372,70.9176154 M3.13712699,36.1319231 C3.65047504,38.7105385 4.2322695,41.1155385 4.78269269,42.2824615 C5.40726616,43.6030769 6.39688713,44.5906923 7.27243075,45.4644615 C8.20501305,46.3923077 9.00925833,47.1977692 9.34008263,48.2565385 C9.9646561,50.2403077 9.93043289,54.02 9.75361301,57.0824615 C5.58693798,51.4527692 3.09149605,44.5223846 3.09149605,37 C3.09149605,36.7068462 3.12857119,36.4222308 3.13712699,36.1319231 M71.0616302,37 C71.0616302,37.1280769 71.0445186,37.2533077 71.0416667,37.3813846 C70.8676987,37.1081538 70.6880269,36.8320769 70.5169109,36.5531538 C68.5861518,33.5049231 66.43009,30.0354615 62.9735464,30.8779231 C60.757594,31.4186923 60.4666968,33.7468462 60.2727653,35.2894615 C60.244246,35.5285385 60.2071708,35.8216923 60.1643918,36.112 C58.3676736,34.0969231 55.1478406,30.6388462 53.3397146,29.526 C52.1533103,28.7916923 48.9049578,27.9577692 48.2661247,27.7955385 C47.7014419,27.6560769 47.09398,27.8467692 46.7118209,28.2936154 C46.3325137,28.7404615 46.2412518,29.3637692 46.4751104,29.9045385 C46.6975612,30.4083077 48.6539877,34.8710769 49.7291667,36.3567692 C50.188328,36.9914615 51.2806186,38.0616154 52.1048274,38.8300769 C51.2036164,40.3755385 49.757686,42.9968462 49.4696407,44.3943077 C49.1815954,45.7803846 49.3013766,47.8068462 49.4211578,49.7763846 C49.5095678,51.2421538 49.6122374,52.9071538 49.4667888,53.6670769 C48.896402,56.5986154 43.2524254,61.3886923 40.0297404,61.6733077 C38.7920012,61.7558462 36.2138532,60.2246154 35.5094256,56.8063846 C35.5151295,56.5189231 35.9172521,55.6963846 36.1596665,55.2068462 C36.6302355,54.2476923 37.0751372,53.3369231 37.0751372,52.4176154 C37.0751372,48.803 36.5817526,42.4304615 33.2735096,40.3243077 C31.7192058,39.3395385 29.392028,39.6554615 27.1447043,39.9713846 C25.8784457,40.1478462 24.2984745,40.367 23.6425298,40.1592308 C23.1577011,40.0026923 21.8201442,38.665 21.5007276,37.9335385 C20.9873796,36.7495385 20.9132293,33.9261538 21.3780945,33.2203077 C24.1416182,28.9852308 25.1626104,28.0943846 26.6570236,27.7016154 C28.3225529,27.2604615 31.9730279,27.6276154 35.1957129,27.9520769 C41.1248829,28.5440769 43.785737,28.7233846 44.6555767,26.862 C45.3229292,25.4275385 45.203148,23.8336923 44.3276044,22.4846154 C42.6021845,19.8291538 38.3014686,18.3491538 32.4207815,18.5 C30.5356534,18.5284615 28.8187893,19.5274615 27.3101164,20.4097692 C26.3661264,20.9619231 25.2966513,21.5852308 24.6920413,21.7446154 C24.6093353,21.4486154 24.962975,20.2503846 26.0210424,19.2570769 C26.5572059,18.7561538 27.629533,17.9876923 28.8359009,18.4146154 C29.5973672,18.6821538 30.4443915,18.3178462 30.7695119,17.5721538 C31.237229,16.4991538 31.8988776,15.1244615 32.1869229,14.7231538 C33.1052456,13.4537692 35.9001405,9.59153846 37.4401847,9.20730769 C38.0619062,9.09061538 40.5031614,9.77938462 42.6620751,10.6759231 C43.0499381,10.8324615 43.483432,10.8324615 43.871295,10.6673846 C44.2534541,10.4994615 44.5557591,10.1863846 44.7012077,9.79361538 C45.074811,8.80030769 46.3981082,6.00823077 47.9039291,4.88115385 C61.3450923,9.40653846 71.0616302,22.0804615 71.0616302,37 M73.8536732,41.4684615 C74.033345,39.9998462 74.1502743,38.517 74.1502743,37 C74.1502743,20.5008462 63.2701475,6.49776923 48.2946441,1.74184615 C48.2661247,1.73046154 48.2404573,1.72192308 48.211938,1.71338462 C44.6955038,0.603384615 40.9537669,0 37.0751372,0 C20.408437,0 6.28280978,11.0345385 1.63130604,26.1646923 C1.61419443,26.2159231 1.6027867,26.2643077 1.5942309,26.3155385 C0.564682858,29.7024615 0,33.2857692 0,37 C0,46.5602308 3.68184631,55.2552308 9.66520306,61.827 C9.77357654,62.012 9.91617322,62.1685385 10.0901412,62.2937692 C16.8577797,69.4803077 26.4374247,74 37.0751372,74 C55.8636759,74 71.3924545,59.9741538 73.7937826,41.8669231 C73.8365616,41.736 73.8508213,41.6050769 73.8536732,41.4684615" id="Fill-1"></path>
            </g>
        </g>
    </g>
</svg>